<?xml version="1.0" ?><svg enable-background="new 0 0 32 32" version="1.1" viewBox="0 0 32 32" xml:space="preserve" xmlns="http://www.w3.org/2000/svg" xmlns:xlink="http://www.w3.org/1999/xlink"><g id="style_2"><g><g><g opacity="0.4"><path d="M16,31.75C7.315,31.75,0.25,24.685,0.25,16S7.315,0.25,16,0.25S31.75,7.315,31.75,16      S24.685,31.75,16,31.75z" fill="#E5E5E5"/><path d="M16,0.5c8.547,0,15.5,6.953,15.5,15.5c0,8.547-6.953,15.5-15.5,15.5S0.5,24.547,0.5,16      C0.5,7.453,7.453,0.5,16,0.5 M16,0C7.178,0,0,7.178,0,16c0,8.822,7.178,16,16,16s16-7.178,16-16C32,7.178,24.822,0,16,0L16,0z" fill="#CCCCCC"/></g><g><path d="M16,31.75C7.315,31.75,0.25,24.685,0.25,16S7.315,0.25,16,0.25S31.75,7.315,31.75,16      S24.685,31.75,16,31.75z" fill="#E5E5E5"/><path d="M16,0.5c8.547,0,15.5,6.953,15.5,15.5c0,8.547-6.953,15.5-15.5,15.5S0.5,24.547,0.5,16      C0.5,7.453,7.453,0.5,16,0.5 M16,0C7.178,0,0,7.178,0,16c0,8.822,7.178,16,16,16s16-7.178,16-16C32,7.178,24.822,0,16,0L16,0z" fill="#CCCCCC"/></g></g><g><path d="M16,30.625C7.936,30.625,1.375,24.064,1.375,16C1.375,7.936,7.936,1.375,16,1.375S30.625,7.936,30.625,16     C30.625,24.064,24.064,30.625,16,30.625z" fill="#FFFFFF"/><path d="M16,30.625C7.936,30.625,1.375,24.064,1.375,16C1.375,7.936,7.936,1.375,16,1.375S30.625,7.936,30.625,16     C30.625,24.064,24.064,30.625,16,30.625z" fill="#FFFFFF"/></g><g><g opacity="0.4"><path d="M16,29.754c-7.584,0-13.754-6.17-13.754-13.754C2.246,8.416,8.416,2.246,16,2.246      S29.754,8.416,29.754,16C29.754,23.584,23.584,29.754,16,29.754z" fill="#DB2B42"/></g><path d="M16,29.754c-7.584,0-13.754-6.17-13.754-13.754C2.246,8.416,8.416,2.246,16,2.246S29.754,8.416,29.754,16     C29.754,23.584,23.584,29.754,16,29.754z" fill="#DB2B42"/></g><g><g opacity="0.4"><path d="M16,29.754c-7.584,0-13.754-6.17-13.754-13.754C2.246,8.416,8.416,2.246,16,2.246      S29.754,8.416,29.754,16C29.754,23.584,23.584,29.754,16,29.754z" fill="#DB2B42"/></g><path d="M16,29.754c-7.584,0-13.754-6.17-13.754-13.754C2.246,8.416,8.416,2.246,16,2.246S29.754,8.416,29.754,16     C29.754,23.584,23.584,29.754,16,29.754z" fill="#DB2B42"/></g><g><g opacity="0.4"><path d="M16,28.577C9.065,28.577,3.423,22.935,3.423,16C3.423,9.065,9.065,3.423,16,3.423S28.577,9.065,28.577,16      C28.577,22.935,22.935,28.577,16,28.577z"/></g><path d="M16,28.577C9.065,28.577,3.423,22.935,3.423,16C3.423,9.065,9.065,3.423,16,3.423S28.577,9.065,28.577,16     C28.577,22.935,22.935,28.577,16,28.577z"/></g></g></g><g id="style_2_1_"><path d="M23.463,21.666H8.537c-0.586,0-1.066-0.48-1.066-1.066v-9.2c0-0.586,0.48-1.066,1.066-1.066h14.926   c0.586,0,1.066,0.48,1.066,1.066v9.2C24.529,21.186,24.05,21.666,23.463,21.666z" fill="none"/><path d="M23.463,21.666H8.537c-0.586,0-1.066-0.48-1.066-1.066v-9.2c0-0.586,0.48-1.066,1.066-1.066h14.926   c0.586,0,1.066,0.48,1.066,1.066v9.2C24.529,21.186,24.05,21.666,23.463,21.666z" fill="none"/><path d="M23.463,21.666H8.537c-0.586,0-1.066-0.48-1.066-1.066v-9.2c0-0.586,0.48-1.066,1.066-1.066h14.926   c0.586,0,1.066,0.48,1.066,1.066v9.2C24.529,21.186,24.05,21.666,23.463,21.666z" fill="none"/><g><path d="M16,15.618l8.478-4.468c-0.116-0.463-0.518-0.816-1.015-0.816H8.537c-0.498,0-0.9,0.353-1.015,0.816    L16,15.618z" fill="#FFFFFF"/><polygon fill="#FFFFFF" points="15.941,16.473 13.817,15.354 9.323,21.666 22.664,21.666 18.171,15.36 16,16.505   "/><path d="M18.87,14.992l4.734,6.646c0.517-0.072,0.925-0.501,0.925-1.037v-8.591L18.87,14.992z" fill="#FFFFFF"/><path d="M8.383,21.635l4.735-6.649l-5.648-2.976V20.6C7.471,21.132,7.872,21.557,8.383,21.635z" fill="#FFFFFF"/></g></g></svg>